<svg width="138" height="30" viewBox="0 0 138 30" fill="none" xmlns="http://www.w3.org/2000/svg">
<path d="M6.65413 25.6579H11.8421C12.7444 25.6579 13.4774 25.2632 14.0414 24.5301C14.6053 23.797 14.8872 22.782 14.8872 21.485C14.8872 20.188 14.6053 19.2293 14.0977 18.5526C13.5338 17.8759 12.8571 17.5376 12.0113 17.5376H6.65413V25.6579ZM6.65413 13.3647H10.9398C11.6165 13.3647 12.1241 12.9699 12.5752 12.2368C13.0263 11.5038 13.1955 10.6015 13.1955 9.58647C13.1955 8.57143 12.9699 7.66918 12.5752 6.99248C12.1805 6.31579 11.6165 5.97745 10.9398 5.97745H6.65413V13.3647ZM10.8271 1.8609C13.2519 1.8609 15.3383 2.48121 17.1429 3.7782C18.9474 5.07519 19.7932 6.8797 19.7932 9.30451C19.7932 10.4323 19.5113 11.4474 19.0038 12.3496C18.4962 13.1955 17.7632 13.985 16.8045 14.6617H16.2406C17.7632 14.8872 19.1165 15.5639 20.3007 16.6353C21.485 17.7068 22.0489 19.2857 22.0489 21.3158C22.0489 23.9098 21.0902 25.9962 19.2293 27.5188C17.3684 29.0414 14.6053 29.7744 10.9962 29.7744H0V1.8609H10.8271Z" fill="#0065CC"/>
<path d="M33.4398 12.1805C32.2556 12.1805 31.297 12.8008 30.6203 14.0977C29.9436 15.3947 29.6053 17.0301 29.6053 19.0602C29.6053 23.515 30.9022 25.7707 33.4398 25.7707C35.9774 25.7707 37.2744 23.515 37.2744 19.0602C37.2744 14.4925 35.9774 12.1805 33.4398 12.1805ZM33.4398 30C30.1128 30 27.5188 29.0414 25.7143 27.1241C23.9098 25.2068 23.0075 22.5 23.0075 19.0602C23.0075 17.5376 23.2895 16.0714 23.797 14.718C24.3045 13.3647 25.0376 12.1805 25.9398 11.1654C26.8421 10.1504 27.9135 9.4173 29.2105 8.85339C30.5075 8.28948 31.9173 8.00752 33.4962 8.00752C35.0188 8.00752 36.4286 8.28948 37.7255 8.85339C39.0225 9.4173 40.1504 10.1504 41.0526 11.1654C41.9549 12.1805 42.688 13.3083 43.1955 14.718C43.703 16.0714 43.985 17.5376 43.985 19.1165C43.985 22.4436 43.0827 25.094 41.2782 27.1241C39.3609 29.0414 36.7669 30 33.4398 30Z" fill="#0065CC"/>
<path d="M55.4887 12.1805C54.3045 12.1805 53.3459 12.8008 52.6692 14.0977C51.9925 15.3947 51.6541 17.0301 51.6541 19.0602C51.6541 23.515 52.9511 25.7707 55.4887 25.7707C58.0263 25.7707 59.3233 23.515 59.3233 19.0602C59.3233 14.4925 58.0263 12.1805 55.4887 12.1805ZM55.4887 30C52.1617 30 49.5677 29.0414 47.7632 27.1241C45.9587 25.2068 45.0564 22.5 45.0564 19.0602C45.0564 17.5376 45.282 16.0714 45.8459 14.718C46.3534 13.3647 47.0865 12.1805 47.9887 11.1654C48.891 10.1504 49.9624 9.4173 51.2594 8.85339C52.5564 8.28948 53.9662 8.00752 55.5451 8.00752C57.0677 8.00752 58.4775 8.28948 59.7744 8.85339C61.0714 9.4173 62.1993 10.1504 63.1015 11.1654C64.0038 12.1805 64.7368 13.3083 65.2444 14.718C65.7519 16.0714 66.0338 17.5376 66.0338 19.1165C66.0338 22.4436 65.1316 25.094 63.3271 27.1241C61.4098 29.0414 58.8158 30 55.4887 30Z" fill="#0065CC"/>
<path d="M75.282 21.1466L74.0977 22.4436V29.7744H67.5564V3.66541L74.2105 0V13.8722L78.3835 9.19173H86.109L79.8496 16.4662L87.0113 29.7744H80.0188L75.282 21.1466Z" fill="#0065CC"/>
<path d="M98.8534 29.7744H91.6917V5.97745H83.797V1.8609H106.635V5.97745H98.8534V29.7744Z" fill="#0065CC"/>
<path d="M108.553 8.23308H115.15V29.7744H108.553V8.23308ZM111.88 6.03384C110.808 6.03384 109.906 5.75188 109.229 5.24436C108.553 4.68045 108.214 4.06015 108.214 3.27068C108.214 2.4812 108.496 1.80451 109.117 1.2406C109.737 0.676694 110.639 0.45113 111.823 0.45113C112.838 0.45113 113.684 0.733085 114.361 1.2406C115.038 1.80451 115.376 2.42481 115.376 3.27068C115.376 4.06015 115.038 4.68045 114.305 5.24436C113.628 5.75188 112.838 6.03384 111.88 6.03384Z" fill="#0065CC"/>
<path d="M131.109 19.0038L137.707 29.7744H130.658L127.613 24.812L124.624 29.7744H117.575L124.173 19.0038L117.462 8.23309H124.624L127.613 13.2519L130.658 8.23309H137.82L131.109 19.0038Z" fill="#0065CC"/>
</svg>
