<svg width="17" height="14" viewBox="0 0 17 14" fill="none" xmlns="http://www.w3.org/2000/svg">
<path fill-rule="evenodd" clip-rule="evenodd" d="M1.51271 7.14182C1.51271 7.54536 1.83985 7.8725 2.2434 7.8725L15.3957 7.8725C15.7993 7.8725 16.1264 7.54536 16.1264 7.14182C16.1264 6.73827 15.7993 6.41113 15.3957 6.41113L2.2434 6.41113C1.83985 6.41113 1.51271 6.73827 1.51271 7.14182Z" fill="#0065CC" stroke="#0065CC" stroke-width="0.99"/>
<path fill-rule="evenodd" clip-rule="evenodd" d="M4.90472 9.63441C3.57159 8.24068 3.57159 6.04456 4.90472 4.65083L6.89145 2.5738C7.17039 2.28218 7.16011 1.81965 6.86849 1.54071C6.57687 1.26177 6.11434 1.27205 5.8354 1.56367L3.35483 4.15699C1.75749 5.82693 1.75749 8.4583 3.35483 10.1283L5.8354 12.7216C6.11434 13.0132 6.57687 13.0235 6.86849 12.7445C7.16011 12.4656 7.17039 12.0031 6.89145 11.7114L4.90472 9.63441Z" fill="#0065CC" stroke="#0065CC" stroke-width="1.87975"/>
</svg>
