<svg width="17" height="14" viewBox="0 0 17 14" fill="none" xmlns="http://www.w3.org/2000/svg">
<path fill-rule="evenodd" clip-rule="evenodd" d="M15.4873 7.14182C15.4873 7.54536 15.1601 7.8725 14.7566 7.8725L1.60428 7.8725C1.20073 7.8725 0.873596 7.54536 0.873596 7.14182C0.873596 6.73827 1.20073 6.41113 1.60428 6.41113L14.7566 6.41113C15.1601 6.41113 15.4873 6.73827 15.4873 7.14182Z" fill="#0065CC" stroke="#0065CC" stroke-width="0.99"/>
<path fill-rule="evenodd" clip-rule="evenodd" d="M12.0953 9.63441C13.4284 8.24068 13.4284 6.04456 12.0953 4.65083L10.1086 2.5738C9.82961 2.28218 9.83989 1.81965 10.1315 1.54071C10.4231 1.26177 10.8857 1.27205 11.1646 1.56367L13.6452 4.15699C15.2425 5.82693 15.2425 8.4583 13.6452 10.1283L11.1646 12.7216C10.8857 13.0132 10.4231 13.0235 10.1315 12.7445C9.83989 12.4656 9.82961 12.0031 10.1086 11.7114L12.0953 9.63441Z" fill="#0065CC" stroke="#0065CC" stroke-width="1.87975"/>
</svg>
