<svg width="20" height="22" viewBox="0 0 20 22" fill="none" xmlns="http://www.w3.org/2000/svg">
<path d="M18.9987 15H2.88871C2.40171 15 2.03971 15.172 1.75571 15.451C1.28671 15.911 1.11871 16.591 1.04471 17.243C0.95871 17.998 0.98971 18.689 1.19971 19.438C1.43571 20.273 2.01971 21 2.88471 21H18.9987M17.4047 21C15.8657 19.588 15.2347 17.142 17.4047 15M9.81671 5.5C9.81671 3 7.10771 2 7.10771 2M9.81671 5.921C9.81671 5.921 3.85771 2.856 3.85771 7.908C3.85871 12.961 6.56871 15 7.64971 15C8.51171 15 9.01971 13.991 9.81671 13.991C10.6137 13.991 10.8987 15 11.9827 15C13.0627 15 15.7747 12.96 15.7747 7.908C15.7747 2.856 9.81671 5.921 9.81671 5.921ZM10.3577 5C10.3577 1.01 12.3087 2 13.2847 1C14.2597 3.5 12.9547 4.003 10.3577 5Z" stroke="url(#paint0_linear_11354_711)" stroke-width="2" stroke-linecap="round" stroke-linejoin="round"/>
<defs>
<linearGradient id="paint0_linear_11354_711" x1="4.60586" y1="32.4804" x2="22.9127" y2="29.0517" gradientUnits="userSpaceOnUse">
<stop stop-color="#3097FF"/>
<stop offset="0.272078" stop-color="#0065CC"/>
<stop offset="1" stop-color="#5D00F3"/>
</linearGradient>
</defs>
</svg>
