<svg width="21" height="21" viewBox="0 0 21 21" fill="none" xmlns="http://www.w3.org/2000/svg">
<path d="M19.9733 3.11062C19.8524 2.40274 19.5147 1.74985 19.0069 1.24205C18.4991 0.734244 17.8462 0.396569 17.1383 0.275621C15.7096 0.0337461 13.5055 -0.172504 11.1139 0.218434C8.21707 0.692809 5.77019 1.91156 3.84269 3.84375C1.91519 5.77593 0.693631 8.22 0.219256 11.1169C-0.171681 13.5084 0.0317562 15.7106 0.276444 17.1412C0.397392 17.8491 0.735067 18.502 1.24287 19.0098C1.75067 19.5176 2.40356 19.8553 3.11144 19.9762C4.18634 20.1577 5.27447 20.2492 6.36457 20.25C7.29207 20.2518 8.21819 20.1787 9.13394 20.0316C12.0308 19.5572 14.4777 18.3384 16.4071 16.4081C18.3364 14.4778 19.5561 12.0319 20.0305 9.135C20.4214 6.74343 20.2152 4.53937 19.9733 3.11062ZM17.7552 3.48562C17.8912 4.28793 17.9726 5.09854 17.9989 5.91187L14.3361 2.25C15.1496 2.27726 15.9602 2.35995 16.7624 2.4975C17.0095 2.54017 17.2375 2.65805 17.4152 2.83506C17.5928 3.01207 17.7116 3.23958 17.7552 3.48656V3.48562ZM2.49269 16.7634C2.35674 15.9614 2.2753 15.1511 2.24894 14.3381L5.91082 18C5.09774 17.9727 4.28744 17.8903 3.48551 17.7534C3.23823 17.7107 3.01018 17.5927 2.83249 17.4155C2.65479 17.2383 2.53613 17.0106 2.49269 16.7634ZM14.8161 14.8172C13.7849 15.8484 11.8808 17.2697 8.89113 17.8012L2.44769 11.3578C2.97926 8.36812 4.40519 6.46218 5.43644 5.4375C6.46769 4.41281 8.37082 2.985 11.3614 2.45343L17.8049 8.89687C17.2686 11.8819 15.8427 13.7878 14.8161 14.8172ZM13.5449 8.295L13.0302 8.8125L13.5477 9.32906C13.759 9.5404 13.8778 9.82705 13.8778 10.1259C13.8778 10.4248 13.759 10.7115 13.5477 10.9228C13.3364 11.1342 13.0497 11.2529 12.7508 11.2529C12.4519 11.2529 12.1653 11.1342 11.9539 10.9228L11.4364 10.4062L10.4052 11.4375L10.9227 11.955C11.134 12.1663 11.2528 12.453 11.2528 12.7519C11.2528 13.0508 11.134 13.3374 10.9227 13.5487C10.7113 13.7601 10.4247 13.8788 10.1258 13.8788C9.82693 13.8788 9.54029 13.7601 9.32894 13.5487L8.81144 13.0312L8.29394 13.5487C8.0826 13.7601 7.79595 13.8788 7.49707 13.8788C7.19818 13.8788 6.91154 13.7601 6.70019 13.5487C6.48885 13.3374 6.37012 13.0508 6.37012 12.7519C6.37012 12.453 6.48885 12.1663 6.70019 11.955L7.21769 11.4375L6.70019 10.9209C6.59555 10.8163 6.51254 10.6921 6.4559 10.5553C6.39927 10.4186 6.37012 10.2721 6.37012 10.1241C6.37012 9.97607 6.39927 9.82952 6.4559 9.69279C6.51254 9.55607 6.59555 9.43183 6.70019 9.32718C6.80484 9.22254 6.92907 9.13953 7.0658 9.08289C7.20253 9.02626 7.34908 8.99711 7.49707 8.99711C7.64506 8.99711 7.79161 9.02626 7.92833 9.08289C8.06506 9.13953 8.1893 9.22254 8.29394 9.32718L8.81144 9.84375L9.84269 8.8125L9.32519 8.295C9.22055 8.19035 9.13754 8.06612 9.0809 7.92939C9.02427 7.79266 8.99512 7.64612 8.99512 7.49812C8.99512 7.35013 9.02427 7.20358 9.0809 7.06686C9.13754 6.93013 9.22055 6.80589 9.32519 6.70125C9.42984 6.5966 9.55407 6.51359 9.6908 6.45695C9.82753 6.40032 9.97408 6.37117 10.1221 6.37117C10.2701 6.37117 10.4166 6.40032 10.5533 6.45695C10.6901 6.51359 10.8143 6.5966 10.9189 6.70125L11.4364 7.21875L11.9539 6.70125C12.1653 6.4899 12.4519 6.37117 12.7508 6.37117C13.0497 6.37117 13.3364 6.4899 13.5477 6.70125C13.759 6.91259 13.8778 7.19924 13.8778 7.49812C13.8778 7.79701 13.759 8.08365 13.5477 8.295H13.5449Z" fill="url(#paint0_linear_11349_680)"/>
<defs>
<linearGradient id="paint0_linear_11349_680" x1="4.05667" y1="31.8739" x2="24.4898" y2="27.6217" gradientUnits="userSpaceOnUse">
<stop stop-color="#3097FF"/>
<stop offset="0.272078" stop-color="#0065CC"/>
<stop offset="1" stop-color="#5D00F3"/>
</linearGradient>
</defs>
</svg>
