<svg width="20" height="20" viewBox="0 0 20 20" fill="none" xmlns="http://www.w3.org/2000/svg">
<path d="M10.78 9.97C10.27 6.54 8.85998 0 5.52998 0C2.19998 0 0.79998 6.54 0.27998 9.97C0.0699805 11.42 -1.94013e-05 12.89 0.159981 14.35C0.499981 17.39 1.54998 18.84 2.26998 19.5C2.63998 19.83 3.10998 20 3.59998 20H7.46998C7.95998 20 8.42998 19.83 8.79998 19.5C9.49998 18.84 10.55 17.39 10.91 14.35C11.08 12.89 11 11.42 10.78 9.97ZM5.52998 2C5.88998 1.87 6.58998 2.73 7.26998 4.31L2.57998 8.33C3.40998 4.26 4.93998 1.79 5.52998 2ZM7.74998 11H3.30998C3.11141 10.9951 2.91924 10.9287 2.75998 10.81L7.99998 6.33C8.28998 7.35 8.55998 8.5 8.74998 9.83C8.83998 10.44 8.36998 11 7.74998 11ZM19.78 9.97C19.27 6.54 17.86 0 14.53 0C13.04 0 11.94 1.32 11.13 3.08C11.5 4.04 11.84 5.14 12.13 6.37L17.31 10.81C17.15 10.92 16.97 11 16.75 11H12.92C13.04 12.27 13.03 13.45 12.89 14.59C12.62 16.87 12 18.45 11.32 19.53C11.68 19.84 12.13 20 12.6 20H16.47C16.96 20 17.43 19.83 17.8 19.5C18.5 18.84 19.55 17.39 19.91 14.35C20.08 12.89 20 11.42 19.78 9.97ZM12.8 4.31C13.5 2.73 14.18 1.87 14.53 2C15.13 1.79 16.65 4.26 17.5 8.33L12.8 4.31Z" fill="url(#paint0_linear_11349_665)"/>
<defs>
<linearGradient id="paint0_linear_11349_665" x1="4.0649" y1="31.4804" x2="24.1813" y2="27.3086" gradientUnits="userSpaceOnUse">
<stop stop-color="#3097FF"/>
<stop offset="0.272078" stop-color="#0065CC"/>
<stop offset="1" stop-color="#5D00F3"/>
</linearGradient>
</defs>
</svg>
