<svg width="24" height="20" viewBox="0 0 24 20" fill="none" xmlns="http://www.w3.org/2000/svg">
<path d="M2.79749 13.9954C4.36124 15.3491 6.84749 17.0891 9.02624 16.7591C9.25499 16.7254 9.47999 16.6654 9.70124 16.5904C9.35624 16.1291 9.05249 15.6754 8.79374 15.2629C7.97249 13.9504 7.71374 12.4429 7.82249 11.0029C7.04999 11.1566 6.35249 11.4904 5.77124 11.9554C5.52749 12.1504 5.15999 12.0041 5.21624 11.6929C5.45624 10.4366 6.45374 9.40913 7.77374 9.20663C7.87124 9.19163 7.97249 9.18038 8.06999 9.17663L8.79749 4.25288C8.87249 3.73538 9.09749 3.02663 9.73499 2.53163C10.4325 1.99538 11.6437 1.38788 13.62 1.20788L13.53 1.12913C12.7725 0.544134 10.815 -0.430866 6.58874 0.210384C2.36249 0.851634 0.768742 2.36288 0.213742 3.14663C-8.44002e-06 3.44663 -0.0300084 3.82538 0.0224916 4.19288L0.929992 10.3541C1.13624 11.7529 1.73624 13.0766 2.79749 13.9991V13.9954ZM6.08624 5.76038C6.25124 5.64413 6.49124 5.68538 6.52874 5.88413C6.53249 5.90288 6.53624 5.92538 6.53999 5.94413C6.65999 6.76163 6.10499 7.51913 5.29874 7.64288C4.49249 7.76663 3.74249 7.20038 3.62249 6.38663C3.61874 6.36788 3.61874 6.34538 3.61499 6.32663C3.59249 6.12413 3.80999 6.01163 4.00124 6.07538C4.33874 6.18788 4.70624 6.22163 5.07749 6.16538C5.44874 6.10913 5.79374 5.96663 6.08249 5.76038H6.08624ZM9.80999 14.6254C10.9125 16.3841 12.7912 18.7841 14.97 19.1141C17.1487 19.4441 19.6387 17.7079 21.1987 16.3504C22.26 15.4316 22.86 14.1079 23.0662 12.7054L23.9737 6.54413C24.0262 6.17663 23.9962 5.79788 23.7825 5.49788C23.2275 4.71413 21.6337 3.20288 17.4075 2.56163C13.1812 1.92038 11.2275 2.89538 10.47 3.48038C10.1775 3.70538 10.0387 4.05788 9.98624 4.42538L9.07874 10.5866C8.87249 11.9854 9.06374 13.4291 9.81374 14.6254H9.80999ZM15.1687 8.82413C14.88 8.61788 14.5387 8.47538 14.1637 8.41913C13.7887 8.36288 13.4212 8.39663 13.0875 8.50913C12.8962 8.57288 12.6787 8.46038 12.7012 8.25788C12.705 8.23913 12.705 8.21663 12.7087 8.19788C12.8287 7.38038 13.5787 6.81788 14.385 6.94163C15.1912 7.06538 15.7462 7.82288 15.6262 8.64038C15.6225 8.65913 15.6187 8.68163 15.615 8.70038C15.5775 8.89913 15.3375 8.94038 15.1725 8.82413H15.1687ZM20.2762 9.40538C20.2387 9.60413 19.9987 9.64538 19.8337 9.52913C19.545 9.32288 19.2037 9.18038 18.8287 9.12413C18.4537 9.06788 18.0862 9.10163 17.7525 9.21413C17.5612 9.27788 17.3437 9.16538 17.3662 8.96288C17.37 8.94413 17.37 8.92163 17.3737 8.90288C17.4937 8.08538 18.2437 7.52288 19.05 7.64663C19.8562 7.77038 20.4112 8.52788 20.2912 9.34538C20.2875 9.36413 20.2837 9.38663 20.28 9.40538H20.2762ZM19.875 13.1329C19.14 14.8091 17.37 15.8516 15.495 15.5666C13.62 15.2816 12.2287 13.7591 12.0075 11.9404C11.97 11.6291 12.3412 11.4866 12.5775 11.6891C13.4737 12.4691 14.5875 13.0129 15.84 13.2004C17.0925 13.3879 18.3187 13.2041 19.3987 12.7204C19.6837 12.5929 19.9987 12.8404 19.8712 13.1291L19.875 13.1329Z" fill="url(#paint0_linear_11349_688)"/>
<defs>
<linearGradient id="paint0_linear_11349_688" x1="4.8074" y1="30.1503" x2="28.4626" y2="23.983" gradientUnits="userSpaceOnUse">
<stop stop-color="#3097FF"/>
<stop offset="0.272078" stop-color="#0065CC"/>
<stop offset="1" stop-color="#5D00F3"/>
</linearGradient>
</defs>
</svg>
