<svg width="21" height="20" viewBox="0 0 21 20" fill="none" xmlns="http://www.w3.org/2000/svg">
<path d="M6.5 5C6.5 6.06087 6.92143 7.07828 7.67157 7.82843C8.42172 8.57857 9.43913 9 10.5 9C11.5609 9 12.5783 8.57857 13.3284 7.82843C14.0786 7.07828 14.5 6.06087 14.5 5C14.5 3.93913 14.0786 2.92172 13.3284 2.17157C12.5783 1.42143 11.5609 1 10.5 1C9.43913 1 8.42172 1.42143 7.67157 2.17157C6.92143 2.92172 6.5 3.93913 6.5 5ZM1 15C1 16.0609 1.42143 17.0783 2.17157 17.8284C2.92172 18.5786 3.93913 19 5 19C6.06087 19 7.07828 18.5786 7.82843 17.8284C8.57857 17.0783 9 16.0609 9 15C9 13.9391 8.57857 12.9217 7.82843 12.1716C7.07828 11.4214 6.06087 11 5 11C3.93913 11 2.92172 11.4214 2.17157 12.1716C1.42143 12.9217 1 13.9391 1 15ZM12 15C12 16.0609 12.4214 17.0783 13.1716 17.8284C13.9217 18.5786 14.9391 19 16 19C17.0609 19 18.0783 18.5786 18.8284 17.8284C19.5786 17.0783 20 16.0609 20 15C20 13.9391 19.5786 12.9217 18.8284 12.1716C18.0783 11.4214 17.0609 11 16 11C14.9391 11 13.9217 11.4214 13.1716 12.1716C12.4214 12.9217 12 13.9391 12 15Z" stroke="url(#paint0_linear_11349_672)" stroke-width="2" stroke-linecap="round" stroke-linejoin="round"/>
<defs>
<linearGradient id="paint0_linear_11349_672" x1="4.80646" y1="29.3323" x2="23.8887" y2="25.1404" gradientUnits="userSpaceOnUse">
<stop stop-color="#3097FF"/>
<stop offset="0.272078" stop-color="#0065CC"/>
<stop offset="1" stop-color="#5D00F3"/>
</linearGradient>
</defs>
</svg>
